<svg version="1.1" id="Layer_1" xmlns="http://www.w3.org/2000/svg" xmlns:xlink="http://www.w3.org/1999/xlink" x="0px" y="0px"
	 width="100%" viewBox="0 0 336 336" enable-background="new 0 0 336 336" xml:space="preserve">
<path fill="#000000" opacity="1.000000" stroke="none" 
	d="
M149.098969,137.889374 
	C140.621964,152.685364 127.208435,157.025208 111.642067,156.736282 
	C107.011475,156.650345 102.344330,156.228012 97.817223,154.864899 
	C82.403976,150.224030 72.219551,137.590073 71.842941,121.248856 
	C71.428368,103.260506 71.771835,85.255623 71.646362,67.258904 
	C71.621933,63.755543 72.992775,62.519196 76.384155,62.632114 
	C81.378059,62.798386 86.395073,62.908272 91.376801,62.612900 
	C95.857201,62.347256 97.502571,63.784424 97.424393,68.507515 
	C97.162407,84.334404 97.261436,100.168915 97.361603,115.999626 
	C97.441223,128.584320 106.650192,135.265793 118.578392,131.564468 
	C124.251793,129.803986 127.685211,124.570419 127.729790,117.033318 
	C127.824425,101.035858 127.952538,85.034431 127.676651,69.041367 
	C127.588211,63.915073 129.304428,62.222645 134.301163,62.587173 
	C139.440552,62.962105 144.627609,62.731403 149.792999,62.681782 
	C152.345642,62.657261 154.059525,63.492023 154.041946,66.315880 
	C153.924774,85.136780 154.693115,103.967644 153.613663,122.775574 
	C153.315506,127.970222 151.502060,132.859100 149.098969,137.889374 
z"/>
<path fill="#000000" opacity="1.000000" stroke="none" 
	d="
M120.723000,283.998779 
	C123.579033,282.521545 125.664680,280.698700 125.218010,277.652039 
	C124.790276,274.734436 122.055695,274.089142 119.668381,273.284088 
	C111.787811,270.626678 103.452728,269.477570 95.838799,265.898712 
	C91.099823,263.671204 86.791687,260.886902 83.230873,257.078827 
	C71.695976,244.742966 74.220406,226.000351 88.556633,217.022644 
	C105.913597,206.153275 132.619431,208.748779 145.505981,222.557434 
	C149.772873,227.129684 149.712051,227.902328 144.758972,231.886642 
	C144.369934,232.199570 143.902481,232.432526 143.566803,232.791718 
	C137.801529,238.960922 132.172821,241.546936 124.276207,235.152496 
	C119.688454,231.437454 113.096100,232.490753 107.319237,233.721039 
	C104.859077,234.244965 102.504723,235.619202 102.299690,238.600479 
	C102.098595,241.524399 104.144737,243.196198 106.456665,244.283356 
	C111.461731,246.636917 116.913551,247.600632 122.236542,248.938080 
	C128.902664,250.613022 135.310867,252.879974 140.998947,256.849945 
	C156.996918,268.015656 156.453110,289.776672 139.922638,300.273315 
	C123.220360,310.879120 94.767754,309.203552 79.533638,296.711487 
	C79.019524,296.289886 78.530342,295.833710 78.061020,295.362335 
	C72.237556,289.513275 72.265862,288.810394 78.704987,283.633209 
	C81.810249,281.136505 84.635979,277.592377 88.186592,276.538757 
	C92.026581,275.399231 94.294983,280.346283 97.650391,282.052399 
	C105.010170,285.794617 112.504539,286.649017 120.723000,283.998779 
z"/>
<path fill="#000000" opacity="1.000000" stroke="none" 
	d="
M246.000000,212.814728 
	C259.662689,212.812881 272.825348,212.799759 285.988037,212.812775 
	C292.636536,212.819351 292.879700,213.091232 292.904144,219.946823 
	C292.916016,223.279099 292.797272,226.617996 292.969177,229.941925 
	C293.175415,233.929626 291.709839,235.713028 287.478821,235.489853 
	C282.161896,235.209381 276.806458,235.646729 271.491241,235.350754 
	C267.292908,235.116974 266.049683,236.691833 266.086182,240.798035 
	C266.254883,259.790680 266.170074,278.785767 266.144348,297.779907 
	C266.135559,304.278076 265.985901,304.381622 259.321625,304.380035 
	C254.822998,304.378967 250.303970,304.110504 245.831299,304.450806 
	C241.097198,304.811035 239.808929,302.820984 239.848465,298.362823 
	C240.015366,279.536804 239.726257,260.705292 240.034058,241.882828 
	C240.117828,236.760132 238.464996,235.137360 233.572647,235.401733 
	C228.090790,235.697952 222.578339,235.375137 217.082642,235.488724 
	C214.079666,235.550751 212.851715,234.277954 212.912766,231.331161 
	C213.005920,226.834396 213.021210,222.333282 212.938141,217.836456 
	C212.872665,214.291885 214.331207,212.728119 218.008987,212.782990 
	C227.170776,212.919724 236.336090,212.819412 246.000000,212.814728 
z"/>
<path fill="#000000" opacity="1.000000" stroke="none" 
	d="
M238.443069,89.034897 
	C247.868973,88.967033 256.839417,89.030487 265.806305,88.881363 
	C269.614014,88.818031 271.225128,90.316109 271.162018,94.173531 
	C271.020844,102.808434 270.963043,111.450020 271.152283,120.082718 
	C271.244232,124.276031 269.522369,125.564529 265.509125,125.459938 
	C257.043610,125.239349 248.566437,125.260918 240.098770,125.425774 
	C236.316833,125.499397 234.669159,124.239990 234.753677,120.278648 
	C234.937866,111.645386 234.812592,103.005638 234.827103,94.368561 
	C234.831100,91.992775 234.771927,89.551147 238.443069,89.034897 
z"/>
</svg>